<svg xmlns="http://www.w3.org/2000/svg" viewBox="0 0 233.76 50.86"><defs><style>.cls-1{fill:#008f85;}</style></defs><title>esgpedia-logo</title><g id="Layer_2" data-name="Layer 2"><g id="Layer_1-2" data-name="Layer 1"><path d="M104.63,11.81A12.14,12.14,0,0,1,111.4,10a13.15,13.15,0,0,1,6.72,1.74,12.12,12.12,0,0,1,4.69,4.93,15.78,15.78,0,0,1,1.68,7.43,15.86,15.86,0,0,1-1.68,7.45,12.28,12.28,0,0,1-4.69,5,13.06,13.06,0,0,1-6.72,1.76,12.21,12.21,0,0,1-6.75-1.84,11.07,11.07,0,0,1-4.18-4.6v19H97V10.37h3.47v6.05A11,11,0,0,1,104.63,11.81Zm15,6.34a9.29,9.29,0,0,0-3.65-3.8A10.48,10.48,0,0,0,110.69,13a10.15,10.15,0,0,0-5.16,1.36,9.75,9.75,0,0,0-3.7,3.88,12.19,12.19,0,0,0-1.36,5.84A12.17,12.17,0,0,0,101.83,30a9.75,9.75,0,0,0,3.7,3.88,10.05,10.05,0,0,0,5.16,1.36,10.29,10.29,0,0,0,5.24-1.34A9.3,9.3,0,0,0,119.58,30a12.58,12.58,0,0,0,1.34-5.92A12.41,12.41,0,0,0,119.58,18.15Z"/><path d="M155.76,25.48H133a11.15,11.15,0,0,0,1.51,5.34A8.93,8.93,0,0,0,138,34.17a10.51,10.51,0,0,0,4.83,1.13,9.71,9.71,0,0,0,5.77-1.66,7.78,7.78,0,0,0,3.09-4.48h3.73a11.7,11.7,0,0,1-4.3,6.57,13.2,13.2,0,0,1-8.29,2.54,13.87,13.87,0,0,1-7-1.74,12.21,12.21,0,0,1-4.81-4.93,15.53,15.53,0,0,1-1.73-7.48,15.78,15.78,0,0,1,1.71-7.5,11.87,11.87,0,0,1,4.78-4.94,14.15,14.15,0,0,1,7-1.71,13.48,13.48,0,0,1,6.88,1.71,11.87,11.87,0,0,1,4.53,4.61,13.11,13.11,0,0,1,1.58,6.42A27.64,27.64,0,0,1,155.76,25.48Zm-4.71-8.11a8.33,8.33,0,0,0-3.49-3.27A10.66,10.66,0,0,0,142.72,13a9.61,9.61,0,0,0-6.7,2.52,10.09,10.09,0,0,0-3.07,7.1h19.34A9.79,9.79,0,0,0,151.05,17.37Z"/><path d="M162.41,16.64a12.24,12.24,0,0,1,4.71-4.93A13.23,13.23,0,0,1,173.89,10a12.48,12.48,0,0,1,6.55,1.76,10.89,10.89,0,0,1,4.28,4.59V.6h3.52V37.87h-3.52V31.72a10.56,10.56,0,0,1-4.13,4.71,12.19,12.19,0,0,1-6.75,1.84,13.12,13.12,0,0,1-6.77-1.76,12.28,12.28,0,0,1-4.69-5,15.86,15.86,0,0,1-1.68-7.45A15.55,15.55,0,0,1,162.41,16.64Zm21,1.64a9.75,9.75,0,0,0-3.7-3.88A10.15,10.15,0,0,0,174.5,13a10.48,10.48,0,0,0-5.24,1.31,9.29,9.29,0,0,0-3.65,3.8,12.41,12.41,0,0,0-1.34,5.92A12.58,12.58,0,0,0,165.61,30a9.3,9.3,0,0,0,3.65,3.87,10.29,10.29,0,0,0,5.24,1.34,10.05,10.05,0,0,0,5.16-1.36,9.75,9.75,0,0,0,3.7-3.88,12.17,12.17,0,0,0,1.36-5.84A12.19,12.19,0,0,0,183.36,18.28Z"/><path d="M196.25,4.43a2.53,2.53,0,0,1-.76-1.86,2.47,2.47,0,0,1,.76-1.84,2.61,2.61,0,0,1,3.62,0,2.44,2.44,0,0,1,.76,1.84,2.5,2.5,0,0,1-.76,1.86,2.54,2.54,0,0,1-3.62,0Zm3.57,5.94v27.5H196.3V10.37Z"/><path d="M207.91,16.64a12,12,0,0,1,4.68-4.93A13.23,13.23,0,0,1,219.36,10a12.29,12.29,0,0,1,6.77,1.81,10.57,10.57,0,0,1,4.11,4.64V10.37h3.52v27.5h-3.52v-6.1a10.93,10.93,0,0,1-4.16,4.66,12.14,12.14,0,0,1-6.77,1.84,13.06,13.06,0,0,1-6.72-1.76,12.19,12.19,0,0,1-4.68-5,15.74,15.74,0,0,1-1.69-7.45A15.66,15.66,0,0,1,207.91,16.64Zm21,1.64a9.75,9.75,0,0,0-3.7-3.88A10.15,10.15,0,0,0,220,13a10.48,10.48,0,0,0-5.24,1.31,9.36,9.36,0,0,0-3.65,3.8,12.41,12.41,0,0,0-1.34,5.92A12.58,12.58,0,0,0,211.13,30a9.36,9.36,0,0,0,3.65,3.87A10.29,10.29,0,0,0,220,35.2a10.05,10.05,0,0,0,5.16-1.36,9.75,9.75,0,0,0,3.7-3.88,12.05,12.05,0,0,0,1.36-5.84A12.08,12.08,0,0,0,228.88,18.28Z"/><path class="cls-1" d="M8.83,9.26v7.33H20.67v6.82H8.83v8H22.22v7.08H0V2.18H22.22V9.26Z"/><path class="cls-1" d="M32.91,37.52a11.7,11.7,0,0,1-5-3.82,10.51,10.51,0,0,1-2-6.1h9.41a4.52,4.52,0,0,0,1.39,3.07,4.47,4.47,0,0,0,3.1,1.06,4.87,4.87,0,0,0,3.1-.9A3,3,0,0,0,44,28.32a3,3,0,0,0-.91-2.22,7.36,7.36,0,0,0-2.22-1.45c-.88-.37-2.12-.8-3.74-1.29a39.27,39.27,0,0,1-5.74-2.17A10.59,10.59,0,0,1,27.59,18,8.92,8.92,0,0,1,26,12.46a9.5,9.5,0,0,1,3.67-7.93,15.06,15.06,0,0,1,9.55-2.87q6,0,9.67,2.87a10.26,10.26,0,0,1,3.92,8H43.24A3.74,3.74,0,0,0,42,9.75a4.56,4.56,0,0,0-3.05-1,3.84,3.84,0,0,0-2.58.85,3.1,3.1,0,0,0-1,2.46A3.05,3.05,0,0,0,37,14.79a27,27,0,0,0,5.17,2.11,48.46,48.46,0,0,1,5.71,2.28,10.87,10.87,0,0,1,3.8,3.15,8.48,8.48,0,0,1,1.6,5.32,10.42,10.42,0,0,1-1.58,5.63,11,11,0,0,1-4.57,4A15.66,15.66,0,0,1,40,38.81,18.68,18.68,0,0,1,32.91,37.52Z"/><path class="cls-1" d="M81.73,13.65a6.51,6.51,0,0,0-2.81-2.76,9.18,9.18,0,0,0-4.32-1,8.86,8.86,0,0,0-6.87,2.82,10.67,10.67,0,0,0-2.58,7.51q0,5,2.71,7.83a9.88,9.88,0,0,0,7.47,2.82,9,9,0,0,0,5.5-1.66,9.33,9.33,0,0,0,3.28-4.75H72.9V18H92.12V26.2A17.51,17.51,0,0,1,82.82,37a18.45,18.45,0,0,1-8.16,1.76,19.41,19.41,0,0,1-9.59-2.35,16.77,16.77,0,0,1-6.56-6.54,19.14,19.14,0,0,1-2.35-9.56,19.29,19.29,0,0,1,2.35-9.58,16.7,16.7,0,0,1,6.54-6.56A19.12,19.12,0,0,1,74.6,1.77a18.58,18.58,0,0,1,11,3.15,14.89,14.89,0,0,1,5.92,8.73Z"/></g></g></svg>